<svg width="36" height="36" viewBox="0 0 36 36" fill="none" xmlns="http://www.w3.org/2000/svg">
<path d="M2 8C2 4.68629 4.68629 2 8 2H30C33.3137 2 36 4.68629 36 8V30C36 33.3137 33.3137 36 30 36H8C4.68629 36 2 33.3137 2 30V8Z" fill="#409041"/>
<path d="M0 6C0 2.68629 2.68629 0 6 0H28C31.3137 0 34 2.68629 34 6V28C34 31.3137 31.3137 34 28 34H6C2.68629 34 0 31.3137 0 28V6Z" fill="#5BB85D"/>
<path d="M14.056 24.1851L7.37164 17.5382C7.33309 17.4999 7.3025 17.4543 7.28162 17.4041C7.26075 17.3539 7.25 17.3001 7.25 17.2457C7.25 17.1914 7.26075 17.1375 7.28162 17.0874C7.3025 17.0372 7.33309 16.9916 7.37164 16.9532L9.05914 15.2639C9.22039 15.1026 9.48101 15.1026 9.64226 15.2639L14.0429 19.6382C14.2041 19.7995 14.4666 19.7976 14.6279 19.6364L24.3516 9.81887C24.5129 9.65574 24.7754 9.65574 24.9385 9.81699L26.6279 11.5064C26.7891 11.6676 26.7891 11.9282 26.6298 12.0895L16.036 22.7789L16.0379 22.7807L14.641 24.1851C14.4798 24.3464 14.2173 24.3464 14.056 24.1851Z" fill="#F2F1F1" stroke="#F2F1F1" stroke-width="1.3125" stroke-miterlimit="10"/>
</svg>
