<svg width="64" height="63" viewBox="0 0 64 63" fill="none" xmlns="http://www.w3.org/2000/svg">
<path d="M31.9995 0C14.3269 0 0 14.1032 0 31.4997C0 48.8955 14.3267 63 31.999 63C49.6714 63 63.9996 48.8955 63.9996 31.4997C63.9996 14.1032 49.6716 0 31.9995 0ZM45.4993 34.9649H35.2018V45.5632C35.2011 47.3405 33.7377 48.781 31.9318 48.781C30.1253 48.781 28.6619 47.3405 28.6619 45.5622V34.9649H18.6385C16.8325 34.9642 15.3697 33.5236 15.3686 31.746C15.3686 29.9688 16.8327 28.5276 18.6385 28.5272L28.6617 28.5278V19.1218C28.6617 17.3439 30.1258 15.9029 31.9312 15.9029C33.7377 15.9029 35.2018 17.3441 35.2011 19.1218L35.2018 28.527L45.4982 28.528C47.3043 28.527 48.7688 29.9686 48.7681 31.7469C48.7688 33.5247 47.3043 34.9649 45.4993 34.9649Z" fill="#B50000"/>
</svg>
