<svg width="62" height="66" viewBox="0 0 62 66" fill="none" xmlns="http://www.w3.org/2000/svg">
<path fill-rule="evenodd" clip-rule="evenodd" d="M0 30.9986C0 13.8782 13.881 0 31 0C48.1218 0 62 13.8782 62 30.9986C62 35.1767 61.1735 39.1617 59.675 42.799C56.9444 39.1361 52.5784 36.764 47.6584 36.764C46.3093 36.764 45.0018 36.9423 43.7583 37.2768C41.9406 35.7126 39.5681 34.7705 36.9669 34.7705H25.0358C19.2923 34.7705 14.6449 39.3661 14.6449 45.1084C14.6449 46.3842 15.2059 47.6002 16.1781 48.4295C20.1692 51.8351 25.3436 53.8925 30.9932 53.8925C31.609 53.8925 32.2192 53.8681 32.8229 53.8202C33.2294 56.7499 34.4834 59.4087 36.3292 61.541C34.5978 61.8409 32.8172 61.9973 31 61.9973C13.8796 61.9973 0 48.119 0 30.9986ZM41.2548 19.5224C41.2548 13.8605 36.6646 9.26895 31 9.26895C25.3381 9.26895 20.7479 13.8605 20.7479 19.5224C20.7479 25.1856 25.3381 29.7758 31 29.7758C36.6646 29.7758 41.2548 25.1856 41.2548 19.5224Z" fill="#B50000"/>
<circle cx="48.3403" cy="52.423" r="12.936" fill="#B50000"/>
<g clip-path="url(#clip0_559_1525)">
<path d="M45.7468 60.6421L38.125 53.0196L41.76 49.3846L45.7468 53.3713L54.9151 44.2036L58.5502 47.8387L45.7468 60.6421Z" fill="#F2F1F1"/>
</g>
<defs>
<clipPath id="clip0_559_1525">
<rect width="20.4252" height="20.4252" fill="white" transform="translate(38.125 42.2102)"/>
</clipPath>
</defs>
</svg>
