<svg width="64" height="64" viewBox="0 0 64 64" fill="none" xmlns="http://www.w3.org/2000/svg">
<circle cx="31.7234" cy="31.7234" r="31.7234" fill="#B50000"/>
<path d="M28.6632 44.9832L26.782 43.3116C25.8414 42.465 25.1157 41.4169 24.6589 40.2344L21.9579 32.7766C21.7295 32.145 22.0251 31.4462 22.6298 31.1641C22.9523 31.0163 23.2748 30.9491 23.6107 30.9491C24.4573 30.9491 25.277 31.4207 25.6936 32.2256L28.1661 37.1975C28.9992 36.5794 29.4829 35.5984 29.4829 34.5772V18.7344C29.4829 17.6191 30.3832 16.7188 31.4986 16.7188C32.6139 16.7188 33.5142 17.6191 33.5142 18.7344V29.4844C33.5142 28.3691 34.4145 27.4688 35.5298 27.4688C36.6451 27.4688 37.5454 28.3691 37.5454 29.4844V30.1562C37.5454 29.0409 38.4457 28.1406 39.5611 28.1406C40.6764 28.1406 41.5767 29.0409 41.5767 30.1562V31.5C41.5767 30.3847 42.477 29.4844 43.5923 29.4844C44.7076 29.4844 45.6079 30.3847 45.6079 31.5V42.3709C45.6079 43.278 45.3352 44.1622 44.8366 44.912" stroke="#455A64" stroke-miterlimit="10" stroke-linecap="round" stroke-linejoin="round"/>
<path d="M28.1387 50.9844V46.9531H45.6074V50.9844" stroke="#455A64" stroke-miterlimit="10" stroke-linecap="round" stroke-linejoin="round"/>
<path d="M24.0775 17.4457C24.0976 17.6473 24.1084 17.8542 24.1084 18.0625C24.1084 21.3936 21.4088 24.0932 18.0776 24.0932C14.7465 24.0932 12.0469 21.3936 12.0469 18.0625C12.0469 14.7313 14.7478 12.0317 18.0776 12.0317C19.1432 12.0317 20.1457 12.3099 21.0151 12.795" stroke="#455A64" stroke-miterlimit="10" stroke-linecap="round" stroke-linejoin="round"/>
<path d="M23.8567 13.8188L18.0772 19.5983L15.293 16.8141" stroke="#455A64" stroke-miterlimit="10" stroke-linecap="round" stroke-linejoin="round"/>
<path d="M44.9355 24.1094C48.2751 24.1094 50.9824 21.4021 50.9824 18.0625C50.9824 14.7229 48.2751 12.0156 44.9355 12.0156C41.5959 12.0156 38.8887 14.7229 38.8887 18.0625C38.8887 21.4021 41.5959 24.1094 44.9355 24.1094Z" stroke="#455A64" stroke-miterlimit="10"/>
<path d="M46.9512 20.0781L42.9199 16.0469" stroke="#455A64" stroke-miterlimit="10" stroke-linecap="round" stroke-linejoin="round"/>
<path d="M46.9512 16.0469L42.9199 20.0781" stroke="#455A64" stroke-miterlimit="10" stroke-linecap="round" stroke-linejoin="round"/>
<path d="M28.6632 44.9832L26.782 43.3116C25.8414 42.465 25.1157 41.4169 24.6589 40.2344L21.9579 32.7766C21.7295 32.145 22.0251 31.4462 22.6298 31.1641C22.9523 31.0163 23.2748 30.9491 23.6107 30.9491C24.4573 30.9491 25.277 31.4207 25.6936 32.2256L28.1661 37.1975C28.9992 36.5794 29.4829 35.5984 29.4829 34.5772V18.7344C29.4829 17.6191 30.3832 16.7188 31.4986 16.7188C32.6139 16.7188 33.5142 17.6191 33.5142 18.7344V29.4844C33.5142 28.3691 34.4145 27.4688 35.5298 27.4688C36.6451 27.4688 37.5454 28.3691 37.5454 29.4844V30.1562C37.5454 29.0409 38.4457 28.1406 39.5611 28.1406C40.6764 28.1406 41.5767 29.0409 41.5767 30.1562V31.5C41.5767 30.3847 42.477 29.4844 43.5923 29.4844C44.7076 29.4844 45.6079 30.3847 45.6079 31.5V42.3709C45.6079 43.278 45.3352 44.1622 44.8366 44.912" stroke="#F2F1F1" stroke-miterlimit="10" stroke-linecap="round" stroke-linejoin="round"/>
<path d="M28.1387 50.9844V46.9531H45.6074V50.9844" stroke="#F2F1F1" stroke-miterlimit="10" stroke-linecap="round" stroke-linejoin="round"/>
<path d="M24.0775 17.4457C24.0976 17.6473 24.1084 17.8542 24.1084 18.0625C24.1084 21.3936 21.4088 24.0932 18.0776 24.0932C14.7465 24.0932 12.0469 21.3936 12.0469 18.0625C12.0469 14.7313 14.7478 12.0317 18.0776 12.0317C19.1432 12.0317 20.1457 12.3099 21.0151 12.795" stroke="#F2F1F1" stroke-miterlimit="10" stroke-linecap="round" stroke-linejoin="round"/>
<path d="M23.8567 13.8188L18.0772 19.5983L15.293 16.8141" stroke="#F2F1F1" stroke-miterlimit="10" stroke-linecap="round" stroke-linejoin="round"/>
<path d="M44.9355 24.1094C48.2751 24.1094 50.9824 21.4021 50.9824 18.0625C50.9824 14.7229 48.2751 12.0156 44.9355 12.0156C41.5959 12.0156 38.8887 14.7229 38.8887 18.0625C38.8887 21.4021 41.5959 24.1094 44.9355 24.1094Z" stroke="#F2F1F1" stroke-miterlimit="10" stroke-linecap="round" stroke-linejoin="round"/>
<path d="M46.9512 20.0781L42.9199 16.0469" stroke="#F2F1F1" stroke-miterlimit="10" stroke-linecap="round" stroke-linejoin="round"/>
<path d="M46.9512 16.0469L42.9199 20.0781" stroke="#F2F1F1" stroke-miterlimit="10" stroke-linecap="round" stroke-linejoin="round"/>
</svg>
