<svg width="26" height="28" viewBox="0 0 26 28" fill="none" xmlns="http://www.w3.org/2000/svg">
    <path d="M25.8484 15.0768V15.1153C25.8484 16.9143 25.4704 18.6246 24.7902 20.1716L24.8217 20.0911C22.8127 24.7706 18.2452 27.9871 12.9252 27.9871C7.60519 27.9871 3.03769 24.7694 1.06136 20.1751L1.02869 20.0911C0.345874 18.5214 -0.00372052 16.8271 0.00202276 15.1153V15.0348C0.00202276 10.8406 2.01919 7.11895 5.13536 4.78445L5.16919 4.76111C5.39636 4.58468 5.65714 4.45643 5.93557 4.38422C6.214 4.312 6.50423 4.29733 6.78852 4.34111L6.77686 4.33995C7.36136 4.40878 7.86069 4.72261 8.17686 5.17411L8.18152 5.17995C8.35782 5.4029 8.48544 5.66032 8.55617 5.93561C8.62691 6.2109 8.63917 6.49796 8.59219 6.77828L8.59336 6.76661C8.55797 7.04639 8.46646 7.31615 8.32433 7.55972C8.1822 7.80329 7.99236 8.01566 7.76619 8.18411L7.76036 8.18761C6.68501 8.99089 5.81194 10.034 5.21062 11.2341C4.60929 12.4341 4.29629 13.7579 4.29652 15.1001C4.29672 16.5705 4.67264 18.0165 5.38859 19.3009C6.10455 20.5852 7.1368 21.6653 8.38741 22.4387C9.63801 23.2121 11.0655 23.6531 12.5344 23.7199C14.0033 23.7866 15.4649 23.477 16.7805 22.8203C18.0961 22.1636 19.2222 21.1816 20.0517 19.9675C20.8813 18.7535 21.3868 17.3476 21.5205 15.8832C21.6541 14.4189 21.4114 12.9447 20.8153 11.6005C20.2192 10.2564 19.2895 9.08678 18.1145 8.20278L18.0924 8.18645C17.8665 8.01885 17.6765 7.80768 17.5336 7.56541C17.3908 7.32315 17.2979 7.05471 17.2605 6.77595L17.2594 6.76545C17.2143 6.48608 17.2279 6.20038 17.2994 5.92659C17.3709 5.65279 17.4987 5.39691 17.6747 5.17528L17.6712 5.17995C17.8326 4.94892 18.0411 4.75472 18.2831 4.61014C18.525 4.46555 18.7948 4.37387 19.0747 4.34111L19.084 4.33995C19.3662 4.29665 19.6544 4.31202 19.9304 4.38508C20.2064 4.45815 20.4644 4.58735 20.6882 4.76461L20.6835 4.76111C23.8359 7.11895 25.8542 10.8429 25.8542 15.0383V15.0779V15.0756L25.8484 15.0768ZM15.08 2.15361V12.9663C15.08 13.5375 14.8531 14.0853 14.4492 14.4892C14.0453 14.893 13.4975 15.1199 12.9264 15.1199C12.3552 15.1199 11.8074 14.893 11.4035 14.4892C10.9996 14.0853 10.7727 13.5375 10.7727 12.9663V12.9196V12.9219V2.13495C10.7727 1.54695 11.0177 1.01611 11.4109 0.639279L11.412 0.638113C11.7959 0.243779 12.3325 -0.0012207 12.9264 -0.0012207C13.5202 -0.0012207 14.0569 0.243779 14.4407 0.638113C14.835 1.01611 15.08 1.54578 15.08 2.13378V2.15361V2.15245V2.15361Z" fill="#9A0000"/>
</svg>

