<svg xmlns="http://www.w3.org/2000/svg" width="26" height="28" fill="none" viewBox="0 0 26 28">
  <g clip-path="url(#a)">
    <path fill="#9A0000" d="M25.848 15.077v.038c0 1.8-.378 3.51-1.058 5.057l.032-.08c-2.01 4.679-6.577 7.895-11.897 7.895S3.038 24.77 1.061 20.175l-.032-.084a12.37 12.37 0 0 1-1.027-4.976v-.08a12.78 12.78 0 0 1 5.133-10.25l.034-.024a2.115 2.115 0 0 1 1.62-.42l-.012-.001a1.986 1.986 0 0 1 1.4.834l.005.006a2.035 2.035 0 0 1 .41 1.598l.001-.011a2.095 2.095 0 0 1-.827 1.417l-.006.004A8.626 8.626 0 0 0 5.39 19.3 8.63 8.63 0 1 0 18.114 8.203l-.022-.017a2.105 2.105 0 0 1-.831-1.41l-.002-.01a2.036 2.036 0 0 1 .416-1.59l-.004.004a1.994 1.994 0 0 1 1.404-.839l.009-.001a2.077 2.077 0 0 1 1.604.425l-.005-.004c3.153 2.358 5.171 6.082 5.171 10.277v.04-.002h-.006ZM15.08 2.154v10.812a2.154 2.154 0 1 1-4.307 0v-.046.002V2.135c0-.588.245-1.119.638-1.496h.001a2.108 2.108 0 0 1 3.029 0c.394.377.639.907.639 1.495v.02-.002.002Z"/>
  </g>
  <defs>
    <clipPath id="a">
      <path fill="#fff" d="M0 0h25.67v28H0z"/>
    </clipPath>
  </defs>
</svg>
